<?xml version="1.0" standalone="no"?>
<!DOCTYPE svg PUBLIC "-//W3C//DTD SVG 1.1//EN" "http://www.w3.org/Graphics/SVG/1.1/DTD/svg11.dtd" >
<svg>
<metadata>
Created by FontForge 20090622 at Sun Jan 22 20:55:47 2017
 By deploy user
Copyright (C) 2007 Yuusuke Kamiyamane. All Rights Reserved.
</metadata>
<defs>
<font id="PFTempestaFiveExtended" horiz-adv-x="700" >
  <font-face
    font-family="PF Tempesta Five Extended"
    font-weight="400"
    font-stretch="normal"
    units-per-em="1000"
    panose-1="0 0 4 0 0 0 0 0 0 0"
    ascent="800"
    descent="-200"
    x-height="500"
    cap-height="500"
    bbox="-100 -200 1200 900"
    underline-thickness="100"
    underline-position="-50"
    unicode-range="U+0020-U+FB02"
  />
<missing-glyph horiz-adv-x="400"
 />
    <glyph glyph-name=".notdef" horiz-adv-x="400"
 />
    <glyph glyph-name="B" unicode="B"
d="M500 260v-60h100v-100h-60v-40h-40v-60h-500v500h500v-60h40v-40h60v-100h-60v-40h-40zM500 300v100h-400v-100h400zM100 100h400v99h-400v-99z" />
    <glyph glyph-name="C" unicode="C"
d="M100 100h500v-100h-500v60h-40v40h-60v300h60v40h40v60h500v-100h-500v-300z" />
    <glyph glyph-name="D" unicode="D"
d="M600 400v-300h-60v-40h-40v-60h-500v500h500v-60h40v-40h60zM500 400h-400v-300h400v300z" />
    <glyph glyph-name="E" unicode="E"
d="M500 260v-60h-400v-100h500v-100h-600v500h600v-100h-500v-100h440v-40h-40z" />
    <glyph glyph-name="F" unicode="F"
d="M500 260v-60h-400v-200h-100v500h600v-100h-500v-100h440v-40h-40z" />
    <glyph glyph-name="H" unicode="H"
d="M500 200h-400v-200h-100v500h100v-200h400v200h100v-500h-100v200z" />
    <glyph glyph-name="I" unicode="I" horiz-adv-x="200"
d="M0 500h100v-500h-100v500z" />
    <glyph glyph-name="J" unicode="J" horiz-adv-x="600"
d="M400 60v-60h-400v100h400v400h100v-400h-60v-40h-40z" />
    <glyph glyph-name="K" unicode="K"
d="M500 20h-80v80h-120v20h-80v79h-120v-199h-100v500h100v-200h120v80h80v20h120v80h80v20h100v-100h-160v-40h-40v-60h-160v-40h-40v-60h200v-60h40v-40h160v-100h-100v20z" />
    <glyph glyph-name="L" unicode="L" horiz-adv-x="600"
d="M0 500h100v-400h400v-100h-500v500z" />
    <glyph glyph-name="glyph11" horiz-adv-x="600"
d="M200 200v99h-100v-299h-100v500h100v-100h100v-100h100v100h100v100h100v-500h-100v299h-100v-99h-100z" />
    <glyph glyph-name="N" unicode="N" horiz-adv-x="800"
d="M300 200v100h-100v100h-100v-400h-100v500h200v-100h100v-100h100v-100h-100zM400 200h100v-100h100v400h100v-500h-200v99h-100v101z" />
    <glyph glyph-name="Z" unicode="Z" horiz-adv-x="600"
d="M0 500h500v-100h-100v-101h-100v-100h-100v-99h300v-100h-500v100h100v100h100v100h100v100h-300v100z" />
    <glyph glyph-name="Y" unicode="Y" horiz-adv-x="800"
d="M540 360h-40v-61h-100v-299h-100v300h-100v60h-40v40h-160v100h100v-20h80v-80h120v-60h40v-40h60v100h120v80h80v20h100v-100h-160v-40z" />
    <glyph glyph-name="X" unicode="X"
d="M500 100h-100v100h-200v100h-100v100h-100v100h100v-100h100v-100h200v-100h100v-100h100v-100h-100v100zM500 500h100v-100h-100v100zM100 200h100v-100h-100v100zM0 100h100v-100h-100v100zM400 400h100v-100h-100v100z" />
    <glyph glyph-name="V" unicode="V" horiz-adv-x="800"
d="M100 340h40v-40h60v-100h100v-100h100v-100h-100v100h-100v99h-100v121h-80v80h-20v100h100v-160zM600 320v-121h-100v-99h-100v100h100v100h60v40h40v160h100v-100h-20v-80h-80z" />
    <glyph glyph-name="T" unicode="T" horiz-adv-x="800"
d="M0 500h700v-100h-300v-400h-100v400h-300v100z" />
    <glyph glyph-name="S" unicode="S"
d="M0 100h500v100h-400v60h-40v40h-60v100h60v40h40v60h500v-100h-500v-100h400v-60h40v-40h60v-100h-60v-40h-40v-60h-500v100z" />
    <glyph glyph-name="Q" unicode="Q"
d="M500 -40h-40v40h-360v60h-40v40h-60v300h60v40h40v60h400v-60h40v-40h60v-300h-60v-40h-40v-60h100v-100h-100v60zM100 400v-300h400v300h-400z" />
    <glyph glyph-name="P" unicode="P"
d="M600 400v-100h-60v-40h-40v-60h-400v-200h-100v500h500v-60h40v-40h60zM500 400h-400v-100h400v100z" />
    <glyph glyph-name="O" unicode="O"
d="M100 0v60h-40v40h-60v300h60v40h40v60h400v-60h40v-40h60v-300h-60v-40h-40v-60h-400zM100 400v-300h400v300h-400z" />
    <glyph glyph-name="G" unicode="G"
d="M300 300h300v-300h-500v60h-40v40h-60v300h60v40h40v60h500v-100h-500v-300h400v100h-200v100z" />
    <glyph glyph-name="exclam" unicode="!" horiz-adv-x="200"
d="M0 500h100v-300h-100v300zM0 100h100v-100h-100v100z" />
    <glyph glyph-name="quotedbl" unicode="&#x22;" horiz-adv-x="400"
d="M0 500h100v-200h-100v200zM200 500h100v-200h-100v200z" />
    <glyph glyph-name="quotesingle" unicode="'" horiz-adv-x="200"
d="M0 500h100v-200h-100v200z" />
    <glyph glyph-name="comma" unicode="," horiz-adv-x="300"
d="M100 0v-80h-80v80h40v40h40v60h100v-100h-100z" />
    <glyph glyph-name="parenleft" unicode="(" horiz-adv-x="300"
d="M100 0h100v-100h-100v60h-40v40h-60v500h60v40h40v60h100v-100h-100v-500z" />
    <glyph glyph-name="zero" unicode="0"
d="M100 0v60h-40v40h-60v300h60v40h40v60h400v-60h40v-40h60v-300h-60v-40h-40v-60h-400zM100 400v-300h400v300h-400z" />
    <glyph glyph-name="eight" unicode="8"
d="M100 0v60h-40v40h-60v100h100v60h-40v40h-60v100h60v40h40v60h400v-60h40v-40h60v-100h-60v-40h-40v-60h100v-100h-60v-40h-40v-60h-400zM100 400v-100h400v100h-400zM100 199v-99h400v99h-400z" />
    <glyph glyph-name="nine" unicode="9"
d="M500 200h-400v60h-40v40h-60v100h60v40h40v60h400v-60h40v-40h60v-300h-60v-40h-40v-60h-400v60h-40v40h440v100zM100 400v-100h400v100h-400z" />
    <glyph glyph-name="six" unicode="6"
d="M500 460v-60h-400v-100h400v-60h40v-40h60v-100h-60v-40h-40v-60h-400v60h-40v40h-60v300h60v40h40v60h440v-40h-40zM100 200v-100h400v100h-400z" />
    <glyph glyph-name="five" unicode="5"
d="M0 500h600v-100h-500v-100h400v-60h40v-40h60v-100h-60v-40h-40v-60h-500v100h500v100h-500v300z" />
    <glyph glyph-name="three" unicode="3"
d="M100 260h-40v40h440v100h-500v100h500v-60h40v-40h60v-100h-60v-40h-40v-60h100v-100h-60v-40h-40v-60h-500v100h500v99h-400v61z" />
    <glyph glyph-name="two" unicode="2"
d="M0 200h60v40h40v60h400v100h-500v100h500v-60h40v-40h60v-100h-60v-40h-40v-60h-400v-100h500v-100h-600v200z" />
    <glyph glyph-name="one" unicode="1" horiz-adv-x="300"
d="M0 500h200v-500h-100v400h-100v100z" />
    <glyph glyph-name="seven" unicode="7"
d="M200 100h100v100h100v100h100v100h-500v100h600v-201h-100v-100h-100v-100h-100v-99h-100v100z" />
    <glyph glyph-name="fi" unicode="&#xfb01;" horiz-adv-x="900"
d="M500 260v-60h-400v-200h-100v500h600v-100h-500v-100h440v-40h-40zM700 500h100v-500h-100v500z" />
    <glyph glyph-name="fl" unicode="&#xfb02;" horiz-adv-x="1300"
d="M500 260v-60h-400v-200h-100v500h600v-100h-500v-100h440v-40h-40zM700 500h100v-400h400v-100h-500v500z" />
    <glyph glyph-name="quoteleft" unicode="&#x2018;" horiz-adv-x="300"
d="M100 400v80h80v-80h-40v-40h-40v-60h-100v100h100z" />
    <glyph glyph-name="quoteright" unicode="&#x2019;" horiz-adv-x="300"
d="M100 400v-80h-80v80h40v40h40v60h100v-100h-100z" />
    <glyph glyph-name="quotedblleft" unicode="&#x201c;" horiz-adv-x="500"
d="M100 400v80h80v-80h120v80h80v-80h-40v-40h-40v-60h-100v99h-60v-39h-40v-60h-100v100h100z" />
    <glyph glyph-name="quotedblright" unicode="&#x201d;" horiz-adv-x="500"
d="M100 320h-80v80h40v40h40v60h100v-100h60v40h40v60h100v-100h-100v-80h-80v79h-120v-79z" />
    <glyph glyph-name="braceleft" unicode="{" horiz-adv-x="400"
d="M0 300h100v200h60v40h40v60h100v-100h-100v-201h-100v-99h100v-200h100v-100h-100v60h-40v40h-60v199h-100v101z" />
    <glyph glyph-name="bar" unicode="|" horiz-adv-x="200"
d="M0 600h100v-700h-100v700z" />
    <glyph glyph-name="bracketleft" unicode="[" horiz-adv-x="300"
d="M0 600h200v-100h-100v-500h100v-100h-200v700z" />
    <glyph glyph-name="bracketright" unicode="]" horiz-adv-x="300"
d="M0 0h100v500h-100v100h200v-700h-200v100z" />
    <glyph glyph-name="W" unicode="W" horiz-adv-x="1000"
d="M400 60v-60h-300v60h-40v40h-60v400h100v-400h300v400h100v-400h300v400h100v-400h-60v-40h-40v-60h-300v99h-60v-39h-40z" />
    <glyph glyph-name="colon" unicode=":" horiz-adv-x="300"
d="M100 100h100v-100h-100v100zM100 500h100v-100h-100v100z" />
    <glyph glyph-name="semicolon" unicode=";" horiz-adv-x="300"
d="M100 500h100v-100h-100v100zM100 0v-80h-80v80h40v40h40v60h100v-100h-100z" />
    <glyph glyph-name="plus" unicode="+" horiz-adv-x="600"
d="M0 300h200v200h100v-200h200v-100h-200v-200h-100v200h-200v100z" />
    <glyph glyph-name="hyphen" unicode="-" horiz-adv-x="400"
d="M0 300h300v-100h-300v100z" />
    <glyph glyph-name="hyphen" unicode="&#xad;" horiz-adv-x="400"
d="M0 300h300v-100h-300v100z" />
    <glyph glyph-name="question" unicode="?"
d="M600 400v-100h-60v-40h-40v-60h-260v-40h-40v40h20v80h80v20h200v100h-500v100h500v-60h40v-40h60zM200 100h100v-100h-100v100z" />
    <glyph glyph-name="equal" unicode="=" horiz-adv-x="400"
d="M0 200h300v-100h-300v100zM0 400h300v-100h-300v100z" />
    <glyph glyph-name="less" unicode="&#x3c;" horiz-adv-x="400"
d="M100 199h-100v101h100v100h100v100h100v-101h-100v-100h-100v-99h100v-100h100v-100h-100v99h-100v100z" />
    <glyph glyph-name="greater" unicode="&#x3e;" horiz-adv-x="400"
d="M200 99h-100v-99h-100v100h100v100h100v99h-100v100h-100v101h100v-100h100v-100h100v-101h-100v-100z" />
    <glyph glyph-name="slash" unicode="/" horiz-adv-x="600"
d="M0 100h100v100h100v100h100v100h100v100h100v-101h-100v-100h-100v-100h-100v-100h-100v-99h-100v100z" />
    <glyph glyph-name="backslash" unicode="\" horiz-adv-x="600"
d="M500 0h-100v99h-100v100h-100v100h-100v100h-100v101h100v-100h100v-100h100v-100h100v-100h100v-100z" />
    <glyph glyph-name="Egrave" unicode="&#xc8;"
d="M500 260v-60h-400v-100h500v-100h-600v500h600v-100h-500v-100h440v-40h-40zM200 700v100h100v-60h40v-40h40v-80h-80v80h-100z" />
    <glyph glyph-name="Eacute" unicode="&#xc9;"
d="M500 260v-60h-400v-100h500v-100h-600v500h600v-100h-500v-100h440v-40h-40zM300 700v-80h-80v80h40v40h40v60h100v-100h-100z" />
    <glyph glyph-name="Ecircumflex" unicode="&#xca;"
d="M500 260v-60h-400v-100h500v-100h-600v500h600v-100h-500v-100h440v-40h-40zM400 740h40v-40h40v-80h-80v80h-200v-80h-80v80h40v40h40v60h200v-60z" />
    <glyph glyph-name="Edieresis" unicode="&#xcb;"
d="M500 260v-60h-400v-100h500v-100h-600v500h600v-100h-500v-100h440v-40h-40zM100 700h100v-100h-100v100zM400 700h100v-100h-100v100z" />
    <glyph glyph-name="ampersand" unicode="&#x26;"
d="M600 200h-100v-100h100v-100h-100v60h-40v40h-120v-40h-40v-60h-200v60h-40v40h-60v100h100v60h-40v40h-60v100h60v40h40v60h400v-100h-400v-100h200v-60h40v-40h120v40h40v60h100v-100zM300 199h-200v-99h200v99z" />
    <glyph glyph-name="percent" unicode="%" horiz-adv-x="600"
d="M0 100h100v100h100v100h100v100h100v100h100v-101h-100v-100h-100v-100h-100v-100h-100v-99h-100v100zM400 100h100v-100h-100v100zM0 500h100v-100h-100v100z" />
    <glyph glyph-name="Scaron" unicode="&#x160;"
d="M0 0h500v60h40v40h60v100h-60v40h-40v60h-400v100h500v100h-500v-60h-40v-40h-60v-100h60v-40h40v-60h400v-100h-500v-100zM400 600h-200v60h-40v40h-40v80h80v-80h200v80h80v-80h-40v-40h-40v-60z" />
    <glyph glyph-name="perthousand" unicode="&#x2030;"
d="M0 100h100v100h100v100h100v100h100v100h100v-101h-100v-100h-100v-100h-100v-100h-100v-99h-100v100zM500 100h100v-100h-100v100zM0 500h100v-100h-100v100zM300 100h100v-100h-100v100z" />
    <glyph glyph-name="circumflex" unicode="&#x2c6;" horiz-adv-x="400"
d="M200 740h40v-40h40v-80h-80v80h-100v-80h-80v80h40v40h40v60h100v-60z" />
    <glyph glyph-name="daggerdbl" unicode="&#x2021;" horiz-adv-x="400"
d="M0 200h100v100h-100v100h100v200h100v-200h100v-100h-100v-100h100v-100h-100v-200h-100v200h-100v100z" />
    <glyph glyph-name="dagger" unicode="&#x2020;" horiz-adv-x="400"
d="M0 400h100v200h100v-200h100v-100h-100v-400h-100v400h-100v100z" />
    <glyph glyph-name="exclamdown" unicode="&#xa1;" horiz-adv-x="200"
d="M0 500h100v-100h-100v100zM0 300h100v-300h-100v300z" />
    <glyph glyph-name="degree" unicode="&#xb0;" horiz-adv-x="400"
d="M200 260v-60h-100v60h-40v40h-60v100h60v40h40v60h100v-60h40v-40h60v-100h-60v-40h-40zM100 300h100v100h-100v-100z" />
    <glyph glyph-name="bullet" unicode="&#x2022;" horiz-adv-x="600"
d="M0 400h100v100h300v-100h100v-300h-100v-100h-300v100h-100v300z" />
    <glyph glyph-name="trademark" unicode="&#x2122;"
d="M200 200h-100v220h-80v80h380v-60h40v-40h60v100h100v-300h-100v120h-80v80h-20v-200h-100v299h-20v-79h-80v-220z" />
    <glyph glyph-name="AE" unicode="&#xc6;" horiz-adv-x="1200"
d="M1000 260v-60h-400v-100h500v-100h-600v200h-400v-200h-100v400h60v40h40v60h1000v-100h-500v-100h440v-40h-40zM100 300h400v100h-400v-100z" />
    <glyph glyph-name="Ccedilla" unicode="&#xc7;"
d="M300 -180h-80v80h40v40h40v60h-200v60h-40v40h-60v300h60v40h40v60h500v-100h-500v-300h500v-100h-200v-100h-100v-80z" />
    <glyph glyph-name="Igrave" unicode="&#xcc;" horiz-adv-x="200"
d="M0 500h100v-500h-100v500zM-100 700v100h100v-60h40v-40h40v-80h-80v80h-100z" />
    <glyph glyph-name="Iacute" unicode="&#xcd;" horiz-adv-x="200"
d="M0 500h100v-500h-100v500zM100 700v-80h-80v80h40v40h40v60h100v-100h-100z" />
    <glyph glyph-name="Icircumflex" unicode="&#xce;" horiz-adv-x="200"
d="M0 500h100v-500h-100v500zM100 740h40v-40h40v-80h-80v80h-100v-80h-80v80h40v40h40v60h100v-60z" />
    <glyph glyph-name="Idieresis" unicode="&#xcf;" horiz-adv-x="200"
d="M0 500h100v-500h-100v500zM-100 700h100v-100h-100v100zM100 700h100v-100h-100v100z" />
    <glyph glyph-name="Ograve" unicode="&#xd2;"
d="M100 0v60h-40v40h-60v300h60v40h40v60h400v-60h40v-40h60v-300h-60v-40h-40v-60h-400zM100 400v-300h400v300h-400zM200 700v100h100v-60h40v-40h40v-80h-80v80h-100z" />
    <glyph glyph-name="Oacute" unicode="&#xd3;"
d="M100 0v60h-40v40h-60v300h60v40h40v60h400v-60h40v-40h60v-300h-60v-40h-40v-60h-400zM100 400v-300h400v300h-400zM300 700v-80h-80v80h40v40h40v60h100v-100h-100z" />
    <glyph glyph-name="Ocircumflex" unicode="&#xd4;"
d="M100 0v60h-40v40h-60v300h60v40h40v60h400v-60h40v-40h60v-300h-60v-40h-40v-60h-400zM100 400v-300h400v300h-400zM400 740h40v-40h40v-80h-80v80h-200v-80h-80v80h40v40h40v60h200v-60z" />
    <glyph glyph-name="Otilde" unicode="&#xd5;"
d="M100 0v60h-40v40h-60v300h60v40h40v60h400v-60h40v-40h60v-300h-60v-40h-40v-60h-400zM100 400v-300h400v300h-400zM400 600h-100v99h-100v-79h-80v80h40v40h40v60h100v-100h100v80h80v-80h-40v-40h-40v-60z" />
    <glyph glyph-name="Odieresis" unicode="&#xd6;"
d="M100 700h100v-100h-100v100zM400 700h100v-100h-100v100zM100 0v60h-40v40h-60v300h60v40h40v60h400v-60h40v-40h60v-300h-60v-40h-40v-60h-400zM100 400v-300h400v300h-400z" />
    <glyph glyph-name="Udieresis" unicode="&#xdc;"
d="M100 700h100v-100h-100v100zM400 700h100v-100h-100v100zM500 100v400h100v-400h-60v-40h-40v-60h-400v60h-40v40h-60v400h100v-400h400z" />
    <glyph glyph-name="Ugrave" unicode="&#xd9;"
d="M100 100v400h-100v-400h60v-40h40v-60h400v60h40v40h60v400h-100v-400h-400zM200 700v100h100v-60h40v-40h40v-80h-80v80h-100z" />
    <glyph glyph-name="Uacute" unicode="&#xda;"
d="M100 100v400h-100v-400h60v-40h40v-60h400v60h40v40h60v400h-100v-400h-400zM300 700v-80h-80v80h40v40h40v60h100v-100h-100z" />
    <glyph glyph-name="Ucircumflex" unicode="&#xdb;"
d="M100 100v400h-100v-400h60v-40h40v-60h400v60h40v40h60v400h-100v-400h-400zM400 740h40v-40h40v-80h-80v80h-200v-80h-80v80h40v40h40v60h200v-60z" />
    <glyph glyph-name="germandbls" unicode="&#xdf;"
d="M0 -100v500h20v80h80v20h400v-60h40v-40h60v-100h-60v-40h-40v-60h100v-100h-60v-40h-40v-60h-300v60h-40v40h340v99h-300v61h-40v40h340v100h-400v-500h-100z" />
    <glyph glyph-name="questiondown" unicode="&#xbf;"
d="M0 100v100h60v40h40v60h260v40h40v-40h-20v-80h-80v-20h-200v-100h500v-100h-500v60h-40v40h-60zM400 400h-100v100h100v-100z" />
    <glyph glyph-name="divide" unicode="&#xf7;" horiz-adv-x="600"
d="M0 300h500v-100h-500v100zM300 400h-100v100h100v-100zM200 0v100h100v-100h-100z" />
    <glyph glyph-name="multiply" unicode="&#xd7;" horiz-adv-x="600"
d="M300 400h100v100h100v-101h-100v-100h-100v-99h100v-100h100v-100h-100v99h-100v101h-100v99h-100v100h-100v101h100v-100h100v-100h100v100zM0 100h100v100h100v-101h-100v-99h-100v100z" />
    <glyph glyph-name="Eth" unicode="&#xd0;" horiz-adv-x="800"
d="M0 300h100v200h500v-60h40v-40h60v-300h-60v-40h-40v-60h-500v200h-100v100zM200 300h200v-100h-200v-100h400v300h-400v-100z" />
    <glyph glyph-name="Oslash" unicode="&#xd8;"
d="M60 200h-60v200h60v40h40v60h300v-60h40v-40h60v100h100v-101h-100v-59h40v-40h60v-200h-60v-40h-40v-60h-300v60h-40v39h-60v-99h-100v100h100v60h-40v40zM100 200h100v100h200v100h-300v-200zM400 299v-100h-200v-99h300v199h-100z" />
    <glyph glyph-name="plusminus" unicode="&#xb1;" horiz-adv-x="600"
d="M0 400h200v100h100v-100h200v-100h-200v-100h-100v100h-200v100zM0 100h500v-100h-500v100z" />
    <glyph glyph-name="brokenbar" unicode="&#xa6;" horiz-adv-x="200"
d="M0 200h100v-300h-100v300zM100 300h-100v300h100v-300z" />
    <glyph glyph-name="OE" unicode="&#x152;" horiz-adv-x="1200"
d="M1000 260v-60h-400v-100h500v-100h-1000v60h-40v40h-60v300h60v40h40v60h1000v-100h-500v-100h440v-40h-40zM100 400v-300h400v300h-400z" />
    <glyph glyph-name="Lslash" unicode="&#x141;"
d="M200 100h400v-100h-500v100h-100v100h100v300h100v-100h100v100h100v-101h-100v-99h-100v-200z" />
    <glyph glyph-name="numbersign" unicode="#"
d="M400 100h-200v-100h-100v100h-100v100h100v100h-100v100h100v100h100v-100h200v100h100v-100h100v-100h-100v-100h100v-100h-100v-100h-100v100zM200 200h200v100h-200v-100z" />
    <glyph glyph-name="dollar" unicode="$" horiz-adv-x="800"
d="M0 100h300v100h-200v60h-40v40h-60v100h60v40h40v60h200v100h100v-100h300v-100h-300v-100h200v-60h40v-40h60v-100h-60v-40h-40v-60h-200v-100h-100v100h-300v100zM100 300h200v100h-200v-100zM400 200v-100h200v100h-200z" />
    <glyph glyph-name="parenright" unicode=")" horiz-adv-x="300"
d="M100 500h-100v100h100v-60h40v-40h60v-500h-60v-40h-40v-60h-100v100h100v500z" />
    <glyph glyph-name="fraction" unicode="&#x2044;" horiz-adv-x="600"
d="M0 100h100v100h100v100h100v100h100v100h100v-101h-100v-100h-100v-100h-100v-100h-100v-99h-100v100z" />
    <glyph glyph-name="asterisk" unicode="*" horiz-adv-x="600"
d="M0 400h100v-100h100v200h100v-200h100v100h100v-101h-100v-99h100v-100h-100v99h-100v-199h-100v199h-100v-99h-100v100h100v99h-100v101z" />
    <glyph glyph-name="braceright" unicode="}" horiz-adv-x="400"
d="M300 199h-100v-199h-60v-40h-40v-60h-100v100h100v200h100v99h-100v201h-100v100h100v-60h40v-40h60v-200h100v-101z" />
    <glyph glyph-name="ring" unicode="&#x2da;" horiz-adv-x="400"
d="M200 660v-60h-100v60h-40v40h-60v100h60v40h40v60h100v-60h40v-40h60v-100h-60v-40h-40zM100 700h100v100h-100v-100z" />
    <glyph glyph-name="dotaccent" unicode="&#x2d9;" horiz-adv-x="200"
d="M0 700h100v-100h-100v100z" />
    <glyph glyph-name="breve" unicode="&#x2d8;" horiz-adv-x="400"
d="M200 600h-100v60h-40v40h-40v80h80v-80h100v80h80v-80h-40v-40h-40v-60z" />
    <glyph glyph-name="Thorn" unicode="&#xde;"
d="M0 -100v700h100v-200h20v80h80v20h300v-60h40v-40h60v-300h-60v-40h-40v-60h-300v20h-80v80h-20v-200h-100zM500 400h-360v-40h-40v-220h40v-40h360v300z" />
    <glyph glyph-name="Yacute" unicode="&#xdd;" horiz-adv-x="800"
d="M300 700v-80h-80v80h40v40h40v60h100v-100h-100zM540 400h160v100h-100v-20h-80v-80h-120v-100h-60v40h-40v60h-120v80h-80v20h-100v-100h160v-40h40v-60h100v-300h100v299h100v61h40v40z" />
    <glyph glyph-name="mu" unicode="&#xb5;"
d="M120 100h-20v-200h-100v600h100v-360h40v-40h320v40h40v360h100v-500h-100v100h-20v-80h-80v-20h-200v20h-80v80z" />
    <glyph glyph-name="mu" unicode="&#x3bc;"
d="M120 100h-20v-200h-100v600h100v-360h40v-40h320v40h40v360h100v-500h-100v100h-20v-80h-80v-20h-200v20h-80v80z" />
    <glyph glyph-name="copyright" unicode="&#xa9;" horiz-adv-x="800"
d="M60 400v40h40v60h60v40h40v60h300v-60h40v-40h60v-60h40v-40h60v-300h-60v-40h-40v-60h-60v-40h-40v-60h-300v60h-40v40h-60v60h-40v40h-60v300h60zM300 160h-40v40h-60v100h60v40h40v60h200v100h-300v-100h-100v-300h100v-100h300v99h-200v61zM480 100h120v299h-120v-79
h-80v-20h-100v-100h100v-20h80v-80z" />
    <glyph glyph-name="registered" unicode="&#xae;" horiz-adv-x="800"
d="M500 -100h-300v60h-40v40h-60v60h-40v40h-60v300h60v40h40v60h60v40h40v60h300v-60h40v-40h60v-60h40v-40h60v-300h-60v-40h-40v-60h-60v-40h-40v-60zM400 160h-40v40h40v20h-80v80h-20v-201h-100v-99h300v99h-100v61zM500 200v-100h100v299h-100v-99h-100v-60h40v-40h60
zM200 400h300v100h-300v-100zM100 100h100v299h-100v-299z" />
    <glyph glyph-name="endash" unicode="&#x2013;" horiz-adv-x="600"
d="M0 300h500v-100h-500v100z" />
    <glyph glyph-name="emdash" unicode="&#x2014;" horiz-adv-x="800"
d="M0 300h700v-100h-700v100z" />
    <glyph glyph-name="tilde" unicode="&#x2dc;" horiz-adv-x="500"
d="M300 600h-100v99h-100v-79h-80v80h40v40h40v60h100v-100h100v80h80v-80h-40v-40h-40v-60z" />
    <glyph glyph-name="ordfeminine" unicode="&#xaa;" horiz-adv-x="400"
d="M20 300h-20v100h60v40h40v60h200v-300h-200v20h-80v80zM100 300h100v100h-100v-100z" />
    <glyph glyph-name="dieresis" unicode="&#xa8;" horiz-adv-x="400"
d="M0 700h100v-100h-100v100zM200 700h100v-100h-100v100z" />
    <glyph glyph-name="minus" unicode="&#x2212;" horiz-adv-x="400"
d="M0 300h300v-100h-300v100z" />
    <glyph glyph-name="ellipsis" unicode="&#x2026;" horiz-adv-x="600"
d="M0 100h100v-100h-100v100zM400 100h100v-100h-100v100zM200 100h100v-100h-100v100z" />
    <glyph glyph-name="quotedblbase" unicode="&#x201e;" horiz-adv-x="500"
d="M100 -80h-80v80h40v40h40v60h100v-100h60v40h40v60h100v-100h-100v-80h-80v79h-120v-79z" />
    <glyph glyph-name="quotesinglbase" unicode="&#x201a;" horiz-adv-x="300"
d="M100 0v-80h-80v80h40v40h40v60h100v-100h-100z" />
    <glyph glyph-name="grave" unicode="`" horiz-adv-x="300"
d="M0 700v100h100v-60h40v-40h40v-80h-80v80h-100z" />
    <glyph glyph-name="caron" unicode="&#x2c7;" horiz-adv-x="400"
d="M200 600h-100v60h-40v40h-40v80h80v-80h100v80h80v-80h-40v-40h-40v-60z" />
    <glyph glyph-name="hungarumlaut" unicode="&#x2dd;" horiz-adv-x="500"
d="M100 620h-80v80h40v40h40v60h100v-100h60v40h40v60h100v-100h-100v-80h-80v79h-120v-79z" />
    <glyph glyph-name="at" unicode="@" horiz-adv-x="800"
d="M460 99h-260v-99h200v-100h-200v60h-40v40h-60v60h-40v40h-60v300h60v40h40v60h60v40h40v60h300v-60h40v-40h60v-60h40v-40h60v-300h-60v-40h-40v-60h-100v60h-40v39zM100 100h200v20h-80v80h-20v100h60v40h40v60h200v100h-300v-100h-100v-300zM600 100v299h-100v-299
h100zM300 200h100v100h-100v-100z" />
    <glyph glyph-name="periodcentered" unicode="&#xb7;" horiz-adv-x="200"
d="M0 300h100v-100h-100v100z" />
    <glyph glyph-name="ordmasculine" unicode="&#xba;" horiz-adv-x="400"
d="M200 260v-60h-100v60h-40v40h-60v100h60v40h40v60h100v-60h40v-40h60v-100h-60v-40h-40zM100 300h100v100h-100v-100z" />
    <glyph glyph-name="asciitilde" unicode="~" horiz-adv-x="500"
d="M300 300h-100v99h-100v-79h-80v80h40v40h40v60h100v-100h100v80h80v-80h-40v-40h-40v-60z" />
    <glyph glyph-name="asciicircum" unicode="^" horiz-adv-x="400"
d="M200 440h40v-40h40v-80h-80v80h-100v-80h-80v80h40v40h40v60h100v-60z" />
    <glyph glyph-name="underscore" unicode="_" horiz-adv-x="400"
d="M0 100h300v-100h-300v100z" />
    <glyph glyph-name="acute" unicode="&#xb4;" horiz-adv-x="300"
d="M100 700v-80h-80v80h40v40h40v60h100v-100h-100z" />
    <glyph glyph-name="a" unicode="a"
d="M600 400v-400h-100v200h-400v-200h-100v400h60v40h40v60h400v-60h40v-40h60zM100 300h400v100h-400v-100z" />
    <glyph glyph-name="b" unicode="b"
d="M500 260v-60h100v-100h-60v-40h-40v-60h-500v500h500v-60h40v-40h60v-100h-60v-40h-40zM500 300v100h-400v-100h400zM100 100h400v99h-400v-99z" />
    <glyph glyph-name="c" unicode="c"
d="M100 100h500v-100h-500v60h-40v40h-60v300h60v40h40v60h500v-100h-500v-300z" />
    <glyph glyph-name="d" unicode="d"
d="M600 400v-300h-60v-40h-40v-60h-500v500h500v-60h40v-40h60zM500 400h-400v-300h400v300z" />
    <glyph glyph-name="e" unicode="e"
d="M500 260v-60h-400v-100h500v-100h-600v500h600v-100h-500v-100h440v-40h-40z" />
    <glyph glyph-name="f" unicode="f"
d="M500 260v-60h-400v-200h-100v500h600v-100h-500v-100h440v-40h-40z" />
    <glyph glyph-name="g" unicode="g"
d="M300 300h300v-300h-500v60h-40v40h-60v300h60v40h40v60h500v-100h-500v-300h400v100h-200v100z" />
    <glyph glyph-name="h" unicode="h"
d="M500 200h-400v-200h-100v500h100v-200h400v200h100v-500h-100v200z" />
    <glyph glyph-name="i" unicode="i" horiz-adv-x="200"
d="M0 500h100v-500h-100v500z" />
    <glyph glyph-name="j" unicode="j" horiz-adv-x="600"
d="M400 60v-60h-400v100h400v400h100v-400h-60v-40h-40z" />
    <glyph glyph-name="k" unicode="k"
d="M500 20h-80v80h-120v20h-80v79h-120v-199h-100v500h100v-200h120v80h80v20h120v80h80v20h100v-100h-160v-40h-40v-60h-160v-40h-40v-60h200v-60h40v-40h160v-100h-100v20z" />
    <glyph glyph-name="l" unicode="l" horiz-adv-x="600"
d="M0 500h100v-400h400v-100h-500v500z" />
    <glyph glyph-name="m" unicode="m" horiz-adv-x="1000"
d="M100 0h-100v500h200v-100h100v-100h100v-100h100v-100h-100v100h-100v100h-100v99h-100v-399zM800 399h-100v-99h-100v100h100v100h200v-500h-100v399zM500 300h100v-100h-100v100z" />
    <glyph glyph-name="n" unicode="n" horiz-adv-x="800"
d="M300 200v100h-100v100h-100v-400h-100v500h200v-100h100v-100h100v-100h-100zM400 200h100v-100h100v400h100v-500h-200v99h-100v101z" />
    <glyph glyph-name="o" unicode="o"
d="M100 0v60h-40v40h-60v300h60v40h40v60h400v-60h40v-40h60v-300h-60v-40h-40v-60h-400zM100 400v-300h400v300h-400z" />
    <glyph glyph-name="p" unicode="p"
d="M600 400v-100h-60v-40h-40v-60h-400v-200h-100v500h500v-60h40v-40h60zM500 400h-400v-100h400v100z" />
    <glyph glyph-name="q" unicode="q"
d="M500 -40h-40v40h-360v60h-40v40h-60v300h60v40h40v60h400v-60h40v-40h60v-300h-60v-40h-40v-60h100v-100h-100v60zM100 400v-300h400v300h-400z" />
    <glyph glyph-name="r" unicode="r"
d="M600 400v-100h-60v-40h-40v-80h80v-80h20v-100h-100v160h-40v40h-360v-200h-100v500h500v-60h40v-40h60zM500 400h-400v-100h400v100z" />
    <glyph glyph-name="s" unicode="s"
d="M0 100h500v100h-400v60h-40v40h-60v100h60v40h40v60h500v-100h-500v-100h400v-60h40v-40h60v-100h-60v-40h-40v-60h-500v100z" />
    <glyph glyph-name="t" unicode="t" horiz-adv-x="800"
d="M0 500h700v-100h-300v-400h-100v400h-300v100z" />
    <glyph glyph-name="v" unicode="v" horiz-adv-x="800"
d="M100 340h40v-40h60v-100h100v-100h100v-100h-100v100h-100v99h-100v121h-80v80h-20v100h100v-160zM600 320v-121h-100v-99h-100v100h100v100h60v40h40v160h100v-100h-20v-80h-80z" />
    <glyph glyph-name="x" unicode="x"
d="M500 100h-100v100h-200v100h-100v100h-100v100h100v-100h100v-100h200v-100h100v-100h100v-100h-100v100zM500 500h100v-100h-100v100zM100 200h100v-100h-100v100zM0 100h100v-100h-100v100zM400 400h100v-100h-100v100z" />
    <glyph glyph-name="y" unicode="y" horiz-adv-x="800"
d="M540 360h-40v-61h-100v-299h-100v300h-100v60h-40v40h-160v100h100v-20h80v-80h120v-60h40v-40h60v100h120v80h80v20h100v-100h-160v-40z" />
    <glyph glyph-name="z" unicode="z" horiz-adv-x="600"
d="M0 500h500v-100h-100v-101h-100v-100h-100v-99h300v-100h-500v100h100v100h100v100h100v100h-300v100z" />
    <glyph glyph-name="ogonek" unicode="&#x2db;" horiz-adv-x="300"
d="M200 -100v-100h-100v60h-40v40h-40v80h80v-80h100z" />
    <glyph glyph-name="dotlessi" unicode="&#x131;" horiz-adv-x="200"
d="M0 500h100v-500h-100v500z" />
    <glyph glyph-name="yen" unicode="&#xa5;" horiz-adv-x="800"
d="M0 200h300v100h-100v60h-40v40h-160v100h100v-20h80v-80h120v-60h40v-40h60v100h120v80h80v20h100v-100h-160v-40h-40v-61h-100v-99h300v-100h-300v-100h-100v100h-300v100z" />
    <glyph glyph-name="cedilla" unicode="&#xb8;" horiz-adv-x="300"
d="M100 -100v-80h-80v80h40v40h40v60h100v-100h-100z" />
    <glyph glyph-name="paragraph" unicode="&#xb6;" horiz-adv-x="600"
d="M60 540h40v60h400v-700h-100v600h-100v-600h-100v300h-100v60h-40v40h-60v200h60v40z" />
    <glyph glyph-name="guilsinglleft" unicode="&#x2039;" horiz-adv-x="400"
d="M100 199h-100v101h100v100h100v100h100v-101h-100v-100h-100v-99h100v-100h100v-100h-100v99h-100v100z" />
    <glyph glyph-name="guilsinglright" unicode="&#x203a;" horiz-adv-x="400"
d="M200 99h-100v-99h-100v100h100v100h100v99h-100v100h-100v101h100v-100h100v-100h100v-101h-100v-100z" />
    <glyph glyph-name="guillemotleft" unicode="&#xab;"
d="M100 199h-100v101h100v100h100v100h100v-101h-100v-100h-100v-99h100v-100h100v-100h-100v99h-100v100zM400 199h-100v101h100v100h100v100h100v-101h-100v-100h-100v-99h100v-100h100v-100h-100v99h-100v100z" />
    <glyph glyph-name="guillemotright" unicode="&#xbb;"
d="M500 99h-100v-99h-100v100h100v100h100v99h-100v100h-100v101h100v-100h100v-100h100v-101h-100v-100zM200 99h-100v-99h-100v100h100v100h100v99h-100v100h-100v101h100v-100h100v-100h100v-101h-100v-100z" />
    <glyph glyph-name="florin" unicode="&#x192;" horiz-adv-x="400"
d="M0 0h100v300h-100v100h100v100h60v40h40v60h100v-100h-100v-100h100v-100h-100v-300h-60v-40h-40v-60h-100v100z" />
    <glyph glyph-name="section" unicode="&#xa7;"
d="M100 360h-40v40h-60v100h60v40h40v60h500v-100h-500v-100h400v-60h40v-40h60v-100h-60v-40h-40v-60h100v-100h-60v-40h-40v-60h-500v100h500v99h-400v61h-40v40h-60v100h100v60zM500 200v99h-400v-99h400z" />
    <glyph glyph-name="Euro" unicode="&#x20ac;"
d="M500 260v-60h-400v-100h500v-100h-500v60h-40v40h-60v300h60v40h40v60h500v-100h-500v-100h440v-40h-40z" />
    <glyph glyph-name="currency" unicode="&#xa4;" horiz-adv-x="600"
d="M0 100h200v20h-80v80h-20v100h20v80h80v19h-200v101h100v-100h300v100h100v-101h-200v-19h80v-80h20v-100h-20v-80h-80v-20h200v-100h-100v99h-300v-99h-100v100zM200 300v-100h100v100h-100z" />
    <glyph glyph-name="logicalnot" unicode="&#xac;" horiz-adv-x="400"
d="M0 400h300v-300h-100v200h-200v100z" />
    <glyph glyph-name="macron" unicode="&#xaf;" horiz-adv-x="400"
d="M0 700h300v-100h-300v100z" />
    <glyph glyph-name="twosuperior" unicode="&#xb2;" horiz-adv-x="400"
d="M0 500h60v40h40v60h100v100h-200v100h200v-60h40v-40h60v-100h-60v-40h-40v-60h-100v-100h200v-100h-300v200z" />
    <glyph glyph-name="threesuperior" unicode="&#xb3;" horiz-adv-x="400"
d="M100 560h-40v40h140v100h-200v100h200v-60h40v-40h60v-100h-60v-40h-40v-60h100v-100h-60v-40h-40v-60h-200v100h200v99h-100v61z" />
    <glyph glyph-name="onesuperior" unicode="&#xb9;" horiz-adv-x="300"
d="M0 800h200v-500h-100v400h-100v100z" />
    <glyph glyph-name="onequarter" unicode="&#xbc;" horiz-adv-x="1100"
d="M900 0v100h-200v200h100v-100h100v100h-100v100h100v100h100v-500h-100zM0 500h200v-500h-100v400h-100v100zM500 500h100v-100h-20v-80h-80v-120h-60v-40h-40v-160h-100v100h20v80h80v120h60v40h40v160z" />
    <glyph glyph-name="onehalf" unicode="&#xbd;" horiz-adv-x="1100"
d="M0 500h200v-500h-100v400h-100v100zM700 200h60v40h40v60h100v100h-200v100h200v-60h40v-40h60v-100h-60v-40h-40v-60h-100v-100h200v-100h-300v200zM500 340h-40v-40h-60v-120h-80v-80h-20v-100h100v160h40v40h60v120h80v80h20v100h-100v-160z" />
    <glyph glyph-name="threequarters" unicode="&#xbe;" horiz-adv-x="1200"
d="M1000 0v100h-200v200h100v-100h100v100h-100v100h100v100h100v-500h-100zM100 260h-40v40h140v100h-200v100h200v-60h40v-40h60v-100h-60v-40h-40v-60h100v-100h-60v-40h-40v-60h-200v100h200v99h-100v61zM700 500v-100h-20v-80h-80v-120h-60v-40h-40v-160h-100v100h20
v80h80v120h60v40h40v160h100z" />
    <glyph glyph-name="space" unicode=" " horiz-adv-x="500"
 />
    <glyph glyph-name="space" unicode="&#xa0;" horiz-adv-x="500"
 />
    <glyph glyph-name="R" unicode="R"
d="M600 400v-100h-60v-40h-40v-80h80v-80h20v-100h-100v160h-40v40h-360v-200h-100v500h500v-60h40v-40h60zM500 400h-400v-100h400v100z" />
    <glyph glyph-name="four" unicode="4"
d="M0 200h100v100h100v100h100v100h200v-300h100v-100h-100v-100h-100v100h-400v100zM200 200h200v199h-100v-100h-100v-99z" />
    <glyph glyph-name="scaron" unicode="&#x161;"
d="M0 0h500v60h40v40h60v100h-60v40h-40v60h-400v100h500v100h-500v-60h-40v-40h-60v-100h60v-40h40v-60h400v-100h-500v-100zM400 600h-200v60h-40v40h-40v80h80v-80h200v80h80v-80h-40v-40h-40v-60z" />
    <glyph glyph-name="oe" unicode="&#x153;" horiz-adv-x="1200"
d="M1000 260v-60h-400v-100h500v-100h-1000v60h-40v40h-60v300h60v40h40v60h1000v-100h-500v-100h440v-40h-40zM100 400v-300h400v300h-400z" />
    <glyph glyph-name="cent" unicode="&#xa2;"
d="M300 0h-200v60h-40v40h-60v300h60v40h40v60h200v100h100v-100h200v-100h-200v-300h200v-100h-200v-100h-100v100zM100 100h200v300h-200v-300z" />
    <glyph glyph-name="sterling" unicode="&#xa3;"
d="M0 300h100v100h60v40h40v60h400v-100h-400v-100h340v-40h-40v-60h-300v-100h400v-100h-600v100h100v100h-100v100z" />
    <glyph glyph-name="Agrave" unicode="&#xc0;"
d="M600 400v-400h-100v200h-400v-200h-100v400h60v40h40v60h400v-60h40v-40h60zM100 300h400v100h-400v-100zM200 700v100h100v-60h40v-40h40v-80h-80v80h-100z" />
    <glyph glyph-name="Aacute" unicode="&#xc1;"
d="M600 400v-400h-100v200h-400v-200h-100v400h60v40h40v60h400v-60h40v-40h60zM100 300h400v100h-400v-100zM300 700v-80h-80v80h40v40h40v60h100v-100h-100z" />
    <glyph glyph-name="Acircumflex" unicode="&#xc2;"
d="M600 400v-400h-100v200h-400v-200h-100v400h60v40h40v60h400v-60h40v-40h60zM100 300h400v100h-400v-100zM400 740h40v-40h40v-80h-80v80h-200v-80h-80v80h40v40h40v60h200v-60z" />
    <glyph glyph-name="Atilde" unicode="&#xc3;"
d="M540 400v40h-40v60h-400v-60h-40v-40h-60v-400h100v200h400v-200h100v400h-60zM100 400h400v-100h-400v100zM400 600h-100v99h-100v-79h-80v80h40v40h40v60h100v-100h100v80h80v-80h-40v-40h-40v-60z" />
    <glyph glyph-name="Adieresis" unicode="&#xc4;"
d="M600 400v-400h-100v200h-400v-200h-100v400h60v40h40v60h400v-60h40v-40h60zM100 300h400v100h-400v-100zM100 700h100v-100h-100v100zM400 700h100v-100h-100v100z" />
    <glyph glyph-name="Aring" unicode="&#xc5;"
d="M600 400v-400h-100v200h-400v-200h-100v400h60v40h40v60h400v-60h40v-40h60zM100 300h400v100h-400v-100zM400 660v-60h-200v60h-40v40h-60v100h60v40h40v60h200v-60h40v-40h60v-100h-60v-40h-40zM200 700h200v100h-200v-100z" />
    <glyph glyph-name="period" unicode="." horiz-adv-x="300"
d="M100 100h100v-100h-100v100z" />
    <glyph glyph-name="lslash" unicode="&#x142;"
d="M200 100h400v-100h-500v100h-100v100h100v300h100v-100h100v100h100v-101h-100v-99h-100v-200z" />
    <glyph glyph-name="Zcaron" unicode="&#x17d;" horiz-adv-x="600"
d="M0 500h500v-100h-100v-101h-100v-100h-100v-99h300v-100h-500v100h100v100h100v100h100v100h-300v100zM300 600h-100v60h-40v40h-40v80h80v-80h100v80h80v-80h-40v-40h-40v-60z" />
    <glyph glyph-name="zcaron" unicode="&#x17e;" horiz-adv-x="600"
d="M0 500h500v-100h-100v-101h-100v-100h-100v-99h300v-100h-500v100h100v100h100v100h100v100h-300v100zM300 600h-100v60h-40v40h-40v80h80v-80h100v80h80v-80h-40v-40h-40v-60z" />
    <glyph glyph-name="ydieresis" unicode="&#xff;" horiz-adv-x="800"
d="M400 700h100v-100h-100v100zM200 700h100v-100h-100v100zM540 400h160v100h-100v-20h-80v-80h-120v-100h-60v40h-40v60h-120v80h-80v20h-100v-100h160v-40h40v-60h100v-300h100v299h100v61h40v40z" />
    <glyph glyph-name="w" unicode="w" horiz-adv-x="1000"
d="M400 60v-60h-300v60h-40v40h-60v400h100v-400h300v400h100v-400h300v400h100v-400h-60v-40h-40v-60h-300v99h-60v-39h-40z" />
    <glyph glyph-name="glyph195" horiz-adv-x="900"
d="M300 200h-100v100h-100v-300h-100v500h100v-100h100v-100h100v-100h200v-100h-200v100zM600 400h100v100h100v-500h-100v300h-100v100zM500 300h100v-100h-100v100z" />
    <glyph glyph-name="U" unicode="U"
d="M500 60v-60h-400v60h-40v40h-60v400h100v-400h400v400h100v-400h-60v-40h-40z" />
    <glyph glyph-name="u" unicode="u"
d="M500 60v-60h-400v60h-40v40h-60v400h100v-400h400v400h100v-400h-60v-40h-40z" />
    <glyph glyph-name="Ntilde" unicode="&#xd1;" horiz-adv-x="800"
d="M400 200v100h-100v100h-100v100h-200v-500h100v400h100v-100h100v-100h100zM400 99h100v-99h200v500h-100v-400h-100v100h-100v-101zM320 700h-120v-80h-80v80h40v40h40v60h100v-20h80v-80h120v80h80v-80h-40v-40h-40v-60h-100v20h-80v80z" />
    <glyph glyph-name="Ydieresis" unicode="&#x178;" horiz-adv-x="800"
d="M400 700h100v-100h-100v100zM200 700h100v-100h-100v100zM540 400h160v100h-100v-20h-80v-80h-120v-100h-60v40h-40v60h-120v80h-80v20h-100v-100h160v-40h40v-60h100v-300h100v299h100v61h40v40z" />
    <glyph glyph-name="A" unicode="A"
d="M600 400v-400h-100v200h-400v-200h-100v400h60v40h40v60h400v-60h40v-40h60zM100 300h400v100h-400v-100z" />
    <glyph glyph-name="oslash" unicode="&#xf8;"
d="M60 200h-60v200h60v40h40v60h300v-60h40v-40h60v100h100v-101h-100v-59h40v-40h60v-200h-60v-40h-40v-60h-300v60h-40v39h-60v-99h-100v100h100v60h-40v40zM100 200h100v100h200v100h-300v-200zM400 299v-100h-200v-99h300v199h-100z" />
    <glyph glyph-name="ugrave" unicode="&#xf9;"
d="M100 100v400h-100v-400h60v-40h40v-60h400v60h40v40h60v400h-100v-400h-400zM200 700v100h100v-60h40v-40h40v-80h-80v80h-100z" />
    <glyph glyph-name="uacute" unicode="&#xfa;"
d="M100 100v400h-100v-400h60v-40h40v-60h400v60h40v40h60v400h-100v-400h-400zM300 700v-80h-80v80h40v40h40v60h100v-100h-100z" />
    <glyph glyph-name="ucircumflex" unicode="&#xfb;"
d="M100 100v400h-100v-400h60v-40h40v-60h400v60h40v40h60v400h-100v-400h-400zM400 740h40v-40h40v-80h-80v80h-200v-80h-80v80h40v40h40v60h200v-60z" />
    <glyph glyph-name="udieresis" unicode="&#xfc;"
d="M100 700h100v-100h-100v100zM400 700h100v-100h-100v100zM500 100v400h100v-400h-60v-40h-40v-60h-400v60h-40v40h-60v400h100v-400h400z" />
    <glyph glyph-name="yacute" unicode="&#xfd;" horiz-adv-x="800"
d="M300 700v-80h-80v80h40v40h40v60h100v-100h-100zM540 400h160v100h-100v-20h-80v-80h-120v-100h-60v40h-40v60h-120v80h-80v20h-100v-100h160v-40h40v-60h100v-300h100v299h100v61h40v40z" />
    <glyph glyph-name="thorn" unicode="&#xfe;"
d="M0 -100v700h100v-200h20v80h80v20h300v-60h40v-40h60v-300h-60v-40h-40v-60h-300v20h-80v80h-20v-200h-100zM500 400h-360v-40h-40v-220h40v-40h360v300z" />
    <glyph glyph-name="agrave" unicode="&#xe0;"
d="M600 400v-400h-100v200h-400v-200h-100v400h60v40h40v60h400v-60h40v-40h60zM100 300h400v100h-400v-100zM200 700v100h100v-60h40v-40h40v-80h-80v80h-100z" />
    <glyph glyph-name="aacute" unicode="&#xe1;"
d="M600 400v-400h-100v200h-400v-200h-100v400h60v40h40v60h400v-60h40v-40h60zM100 300h400v100h-400v-100zM300 700v-80h-80v80h40v40h40v60h100v-100h-100z" />
    <glyph glyph-name="acircumflex" unicode="&#xe2;"
d="M600 400v-400h-100v200h-400v-200h-100v400h60v40h40v60h400v-60h40v-40h60zM100 300h400v100h-400v-100zM400 740h40v-40h40v-80h-80v80h-200v-80h-80v80h40v40h40v60h200v-60z" />
    <glyph glyph-name="atilde" unicode="&#xe3;"
d="M540 400v40h-40v60h-400v-60h-40v-40h-60v-400h100v200h400v-200h100v400h-60zM100 400h400v-100h-400v100zM400 600h-100v99h-100v-79h-80v80h40v40h40v60h100v-100h100v80h80v-80h-40v-40h-40v-60z" />
    <glyph glyph-name="adieresis" unicode="&#xe4;"
d="M600 400v-400h-100v200h-400v-200h-100v400h60v40h40v60h400v-60h40v-40h60zM100 300h400v100h-400v-100zM100 700h100v-100h-100v100zM400 700h100v-100h-100v100z" />
    <glyph glyph-name="aring" unicode="&#xe5;"
d="M600 400v-400h-100v200h-400v-200h-100v400h60v40h40v60h400v-60h40v-40h60zM100 300h400v100h-400v-100zM400 660v-60h-200v60h-40v40h-60v100h60v40h40v60h200v-60h40v-40h60v-100h-60v-40h-40zM200 700h200v100h-200v-100z" />
    <glyph glyph-name="ae" unicode="&#xe6;" horiz-adv-x="1200"
d="M1000 260v-60h-400v-100h500v-100h-600v200h-400v-200h-100v400h60v40h40v60h1000v-100h-500v-100h440v-40h-40zM100 300h400v100h-400v-100z" />
    <glyph glyph-name="ccedilla" unicode="&#xe7;"
d="M300 -180h-80v80h40v40h40v60h-200v60h-40v40h-60v300h60v40h40v60h500v-100h-500v-300h500v-100h-200v-100h-100v-80z" />
    <glyph glyph-name="egrave" unicode="&#xe8;"
d="M500 260v-60h-400v-100h500v-100h-600v500h600v-100h-500v-100h440v-40h-40zM200 700v100h100v-60h40v-40h40v-80h-80v80h-100z" />
    <glyph glyph-name="eacute" unicode="&#xe9;"
d="M500 260v-60h-400v-100h500v-100h-600v500h600v-100h-500v-100h440v-40h-40zM300 700v-80h-80v80h40v40h40v60h100v-100h-100z" />
    <glyph glyph-name="ecircumflex" unicode="&#xea;"
d="M500 260v-60h-400v-100h500v-100h-600v500h600v-100h-500v-100h440v-40h-40zM400 740h40v-40h40v-80h-80v80h-200v-80h-80v80h40v40h40v60h200v-60z" />
    <glyph glyph-name="edieresis" unicode="&#xeb;"
d="M500 260v-60h-400v-100h500v-100h-600v500h600v-100h-500v-100h440v-40h-40zM100 700h100v-100h-100v100zM400 700h100v-100h-100v100z" />
    <glyph glyph-name="igrave" unicode="&#xec;" horiz-adv-x="200"
d="M0 500h100v-500h-100v500zM-100 700v100h100v-60h40v-40h40v-80h-80v80h-100z" />
    <glyph glyph-name="iacute" unicode="&#xed;" horiz-adv-x="200"
d="M0 500h100v-500h-100v500zM100 700v-80h-80v80h40v40h40v60h100v-100h-100z" />
    <glyph glyph-name="icircumflex" unicode="&#xee;" horiz-adv-x="200"
d="M0 500h100v-500h-100v500zM100 740h40v-40h40v-80h-80v80h-100v-80h-80v80h40v40h40v60h100v-60z" />
    <glyph glyph-name="idieresis" unicode="&#xef;" horiz-adv-x="200"
d="M0 500h100v-500h-100v500zM-100 700h100v-100h-100v100zM100 700h100v-100h-100v100z" />
    <glyph glyph-name="eth" unicode="&#xf0;" horiz-adv-x="800"
d="M0 300h100v200h500v-60h40v-40h60v-300h-60v-40h-40v-60h-500v200h-100v100zM200 300h200v-100h-200v-100h400v300h-400v-100z" />
    <glyph glyph-name="ntilde" unicode="&#xf1;" horiz-adv-x="800"
d="M400 200v100h-100v100h-100v100h-200v-500h100v400h100v-100h100v-100h100zM400 99h100v-99h200v500h-100v-400h-100v100h-100v-101zM320 700h-120v-80h-80v80h40v40h40v60h100v-20h80v-80h120v80h80v-80h-40v-40h-40v-60h-100v20h-80v80z" />
    <glyph glyph-name="ograve" unicode="&#xf2;"
d="M100 0v60h-40v40h-60v300h60v40h40v60h400v-60h40v-40h60v-300h-60v-40h-40v-60h-400zM100 400v-300h400v300h-400zM200 700v100h100v-60h40v-40h40v-80h-80v80h-100z" />
    <glyph glyph-name="oacute" unicode="&#xf3;"
d="M100 0v60h-40v40h-60v300h60v40h40v60h400v-60h40v-40h60v-300h-60v-40h-40v-60h-400zM100 400v-300h400v300h-400zM300 700v-80h-80v80h40v40h40v60h100v-100h-100z" />
    <glyph glyph-name="ocircumflex" unicode="&#xf4;"
d="M100 0v60h-40v40h-60v300h60v40h40v60h400v-60h40v-40h60v-300h-60v-40h-40v-60h-400zM100 400v-300h400v300h-400zM400 740h40v-40h40v-80h-80v80h-200v-80h-80v80h40v40h40v60h200v-60z" />
    <glyph glyph-name="otilde" unicode="&#xf5;"
d="M100 0v60h-40v40h-60v300h60v40h40v60h400v-60h40v-40h60v-300h-60v-40h-40v-60h-400zM100 400v-300h400v300h-400zM400 600h-100v99h-100v-79h-80v80h40v40h40v60h100v-100h100v80h80v-80h-40v-40h-40v-60z" />
    <glyph glyph-name="odieresis" unicode="&#xf6;"
d="M100 700h100v-100h-100v100zM400 700h100v-100h-100v100zM100 0v60h-40v40h-60v300h60v40h40v60h400v-60h40v-40h60v-300h-60v-40h-40v-60h-400zM100 400v-300h400v300h-400z" />
    <glyph glyph-name="M" unicode="M" horiz-adv-x="1000"
d="M100 0h-100v500h200v-100h100v-100h100v-100h100v-100h-100v100h-100v100h-100v99h-100v-399zM800 399h-100v-99h-100v100h100v100h200v-500h-100v399zM500 300h100v-100h-100v100z" />
    </font>
</defs>
</svg>
